<svg version="1.1" id="Layer_1" xmlns="http://www.w3.org/2000/svg" xmlns:xlink="http://www.w3.org/1999/xlink" x="0px" y="0px"
	 width="60px" height="60px" viewBox="0 0 60 60" enable-background="new 0 0 60 60" xml:space="preserve">
<path fill-rule="evenodd" clip-rule="evenodd" fill="#EAEAEA" d="M30.102,3.544c-14.648,0-26.524,11.875-26.524,26.523
	c0,14.65,11.875,26.525,26.524,26.525c14.649,0,26.524-11.875,26.524-26.525C56.626,15.42,44.751,3.544,30.102,3.544z
	 M30.102,56.005c-14.324,0-25.937-11.613-25.937-25.937c0-14.322,11.613-25.936,25.937-25.936s25.937,11.613,25.937,25.936
	C56.038,44.392,44.426,56.005,30.102,56.005z"/>
<circle fill-rule="evenodd" clip-rule="evenodd" fill="#FFFFFF" cx="30.102" cy="30.069" r="25.936"/>
<g>
	<g>
		<path fill="#EAEAEA" d="M37.479,15.172H18.361v29.793h23.482v-25.66L37.479,15.172z M20.391,42.982V17.154h16.041v3.148h3.377
			v22.68H20.391z"/>
	</g>
</g>
<path fill="#E04329" d="M26.355,25.23c-0.719-0.719-1.81,0.373-1.091,1.091c2.861,2.861,5.723,5.722,8.584,8.584
	c0.719,0.719,1.811-0.373,1.092-1.092C32.078,30.954,29.217,28.091,26.355,25.23z"/>
<path fill="#E04329" d="M25.264,33.814c-0.72,0.719,0.372,1.811,1.091,1.092c2.861-2.862,5.724-5.723,8.585-8.584
	c0.719-0.718-0.373-1.81-1.092-1.091C30.987,28.091,28.125,30.954,25.264,33.814z"/>
</svg>
