<svg version="1.1" id="Layer_1" xmlns="http://www.w3.org/2000/svg" xmlns:xlink="http://www.w3.org/1999/xlink" x="0px" y="0px"
	 width="60px" height="60px" viewBox="0 0 60 60" enable-background="new 0 0 60 60" xml:space="preserve">
<path fill-rule="evenodd" clip-rule="evenodd" fill="#EAEAEA" d="M30.102,3.544c-14.648,0-26.524,11.875-26.524,26.523
	c0,14.65,11.875,26.525,26.524,26.525c14.649,0,26.524-11.875,26.524-26.525C56.626,15.42,44.751,3.544,30.102,3.544z
	 M30.102,55.588c-14.094,0-25.52-11.427-25.52-25.52c0-14.092,11.426-25.519,25.52-25.519s25.52,11.427,25.52,25.519
	C55.621,44.161,44.195,55.588,30.102,55.588z"/>
<circle fill-rule="evenodd" clip-rule="evenodd" fill="#FFFFFF" cx="30.102" cy="30.069" r="25.519"/>
<path fill="#66BF72" d="M46.552,17.328c-1.422-1.118-3.467-0.957-4.569,0.358L27.442,35.047l-7.589-9.551
	c-1.132-1.423-3.242-1.689-4.711-0.595c-1.471,1.096-1.746,3.139-0.614,4.565l10.186,12.819c1.132,1.422,3.242,1.69,4.713,0.594
	c0.418-0.312,0.729-0.707,0.949-1.138l16.756-20.006C48.234,20.417,47.975,18.445,46.552,17.328z"/>
</svg>
