<svg version="1.1" id="Layer_1" xmlns="http://www.w3.org/2000/svg" xmlns:xlink="http://www.w3.org/1999/xlink" x="0px" y="0px"
	 width="60px" height="60px" viewBox="0 0 60 60" enable-background="new 0 0 60 60" xml:space="preserve">
<path fill-rule="evenodd" clip-rule="evenodd" fill="#EAEAEA" d="M30,0.833c-14.648,0-26.524,11.875-26.524,26.523
	c0,14.649,11.875,26.524,26.524,26.524c14.649,0,26.524-11.875,26.524-26.524C56.524,12.708,44.649,0.833,30,0.833z M30,53.293
	c-14.324,0-25.937-11.613-25.937-25.937C4.063,13.034,15.676,1.421,30,1.421s25.937,11.613,25.937,25.936
	C55.937,41.68,44.324,53.293,30,53.293z"/>
<circle fill-rule="evenodd" clip-rule="evenodd" fill="#FFFFFF" cx="30" cy="27.357" r="25.936"/>
<g>
	<g>
		<path fill="#EAEAEA" d="M37.546,22.313H18.429v29.792H41.91v-25.66L37.546,22.313z M20.459,50.123V24.295h16.04v3.148h3.377
			v22.679H20.459z"/>
	</g>
</g>
<g>
	<g>
		<polygon fill="#EAEAEA" points="37.545,15.834 18.428,15.834 18.429,21.227 20.458,21.262 20.458,17.817 36.499,17.817 
			36.499,20.965 39.876,20.965 39.876,22.771 41.909,24.754 41.909,19.968 		"/>
	</g>
</g>
<path fill="#238ECD" d="M16.194,15.873c0.138,0.184,0.097,0.443-0.092,0.58l-0.544,0.394c0.086,0.23,0.146,0.471,0.179,0.715
	l0.667,0.093c0.111,0.015,0.212,0.073,0.278,0.162c0.067,0.088,0.095,0.197,0.077,0.308l-0.171,1.077
	c-0.034,0.21-0.269,0.381-0.485,0.35l-0.667-0.093c-0.107,0.225-0.239,0.438-0.393,0.636l0.4,0.526
	c0.138,0.183,0.096,0.442-0.093,0.579l-0.901,0.654c-0.189,0.137-0.456,0.099-0.594-0.084l-0.398-0.526
	c-0.238,0.086-0.485,0.148-0.736,0.184l-0.104,0.65c-0.034,0.218-0.26,0.383-0.484,0.351l-1.103-0.154
	c-0.232-0.033-0.392-0.242-0.356-0.469l0.104-0.651c-0.23-0.103-0.446-0.227-0.647-0.376l-0.544,0.393
	c-0.189,0.138-0.456,0.1-0.594-0.083l-0.66-0.871c-0.138-0.182-0.097-0.442,0.092-0.578l0.544-0.396
	c-0.087-0.23-0.146-0.471-0.18-0.717l-0.667-0.093c-0.111-0.015-0.212-0.072-0.277-0.161c-0.067-0.088-0.095-0.198-0.078-0.307
	l0.171-1.078c0.033-0.21,0.269-0.381,0.485-0.351l0.667,0.093c0.107-0.226,0.24-0.438,0.394-0.635l-0.399-0.526
	c-0.139-0.183-0.097-0.443,0.092-0.579l0.901-0.654c0.189-0.136,0.455-0.099,0.593,0.083l0.398,0.526
	c0.239-0.085,0.485-0.148,0.736-0.183l0.104-0.653c0.035-0.218,0.261-0.38,0.484-0.349l1.104,0.154
	c0.231,0.032,0.39,0.241,0.354,0.467l-0.103,0.65c0.229,0.104,0.446,0.23,0.646,0.377l0.545-0.395
	c0.189-0.137,0.455-0.098,0.594,0.083L16.194,15.873L16.194,15.873z M13.511,17.143c-0.503-0.666-1.472-0.801-2.161-0.302
	c-0.688,0.498-0.838,1.444-0.334,2.109c0.503,0.665,1.472,0.799,2.161,0.3C13.864,18.753,14.015,17.806,13.511,17.143z"/>
<path fill="#238ECD" d="M18.151,10.47l-0.249,0.183c0.032,0.095,0.056,0.192,0.073,0.292l0.306,0.042
	c0.083,0.011,0.157,0.055,0.206,0.121c0.049,0.063,0.069,0.146,0.057,0.227l-0.093,0.591c-0.026,0.158-0.199,0.283-0.359,0.261
	l-0.306-0.043c-0.047,0.09-0.101,0.176-0.161,0.259l0.182,0.241c0.103,0.137,0.073,0.329-0.068,0.429l-0.494,0.36
	c-0.14,0.101-0.337,0.073-0.44-0.062l-0.183-0.243c-0.098,0.033-0.199,0.059-0.301,0.076l-0.047,0.298
	c-0.026,0.163-0.194,0.284-0.359,0.261l-0.605-0.085c-0.083-0.011-0.156-0.054-0.207-0.12c-0.049-0.065-0.069-0.147-0.056-0.228
	l0.046-0.299c-0.092-0.044-0.18-0.095-0.265-0.153l-0.25,0.181c-0.14,0.102-0.337,0.075-0.44-0.061l-0.361-0.479
	c-0.103-0.134-0.072-0.327,0.068-0.429l0.249-0.18c-0.032-0.096-0.057-0.193-0.073-0.293l-0.305-0.042
	c-0.083-0.012-0.158-0.056-0.207-0.12c-0.049-0.065-0.07-0.149-0.057-0.229l0.093-0.589c0.025-0.157,0.198-0.284,0.359-0.259
	l0.306,0.042c0.047-0.092,0.101-0.178,0.162-0.26l-0.184-0.242c-0.102-0.136-0.071-0.327,0.068-0.429l0.495-0.358
	c0.14-0.103,0.337-0.074,0.44,0.061l0.183,0.243c0.098-0.034,0.199-0.059,0.301-0.075l0.048-0.299
	c0.025-0.161,0.195-0.283,0.359-0.261l0.605,0.085c0.083,0.01,0.157,0.055,0.207,0.12c0.049,0.064,0.07,0.147,0.056,0.227
	l-0.046,0.299c0.092,0.045,0.181,0.098,0.265,0.154l0.249-0.18c0.141-0.102,0.337-0.073,0.44,0.062l0.362,0.479
	C18.322,10.176,18.291,10.368,18.151,10.47z M16.683,10.783c-0.276-0.365-0.81-0.44-1.189-0.167
	c-0.376,0.275-0.459,0.794-0.183,1.16c0.277,0.365,0.81,0.441,1.188,0.167C16.877,11.669,16.961,11.149,16.683,10.783z"/>
<path fill="#EAEAEA" d="M23.092,30v10.258h14.156V30H23.092z M36.236,38.548l-2.022-3.418l-2.291,1.937l-1.753-2.964l-6.067,5.128
	v-8.203h12.134V38.548z M25.114,33.59c0,0.851,0.679,1.54,1.517,1.54c0.837,0,1.518-0.689,1.518-1.54
	c0-0.849-0.681-1.538-1.518-1.538C25.793,32.052,25.114,32.741,25.114,33.59z"/>
<path fill="#238ECD" d="M43.993,38.428H16.007c-0.345,0-0.643,0.121-0.894,0.362s-0.378,0.527-0.378,0.857v18.3
	c0,0.33,0.127,0.616,0.378,0.858c0.251,0.241,0.549,0.361,0.894,0.361h27.986c0.344,0,0.643-0.12,0.896-0.361
	c0.249-0.242,0.377-0.528,0.377-0.858v-18.3c0-0.33-0.127-0.616-0.377-0.857C44.636,38.549,44.337,38.428,43.993,38.428z
	 M33.438,44.166c-0.252,0.24-0.549,0.363-0.895,0.363h-5.088c-0.344,0-0.643-0.123-0.895-0.363c-0.251-0.242-0.376-0.528-0.376-0.86
	c0-0.329,0.125-0.613,0.376-0.856c0.252-0.24,0.551-0.361,0.895-0.361h5.09c0.344,0,0.641,0.121,0.893,0.361
	c0.252,0.243,0.379,0.527,0.379,0.856C33.816,43.638,33.689,43.924,33.438,44.166z"/>
</svg>
