<svg version="1.1" id="Layer_1" xmlns="http://www.w3.org/2000/svg" xmlns:xlink="http://www.w3.org/1999/xlink" x="0px" y="0px"
   width="200px" height="200px" viewBox="0 0 200 200" enable-background="new 0 0 200 200" xml:space="preserve">
<filter  height="140%" width="140%" id="drop-shadow" y="-12%" x="-12%">
  <feGaussianBlur  stdDeviation="2" result="blur-out" in="SourceAlpha"></feGaussianBlur>
  <feOffset  result="the-shadow" dy="1" in="blur-out" dx="0"></feOffset>
  
    <feColorMatrix  type="matrix" values="0 0 0 0   0               0 0 0 0   0                0 0 0 0   0                0 0 0 .5 0" result="color-out" in="the-shadow">
    </feColorMatrix>
  <feBlend  in2="color-out" in="SourceGraphic" mode="normal"></feBlend>
</filter>
<path fill="#FFFFFF" filter="url(#drop-shadow)" d="M99.6,62.22c-21.738,0-39.347,17.114-39.347,38.241
  c0,21.064,17.608,38.241,39.347,38.241c21.673,0,39.347-17.177,39.347-38.241C138.946,79.333,121.272,62.22,99.6,62.22z
   M126.713,87.802l-28.106,33.857c-0.37,0.727-0.889,1.393-1.593,1.924c-2.467,1.854-6.005,1.405-7.905-1.007l-17.084-21.692
  c-1.899-2.412-1.439-5.87,1.03-7.725c2.464-1.853,6.003-1.403,7.902,1.007l12.729,16.164l24.388-29.378
  c1.847-2.227,5.281-2.499,7.667-0.606C128.126,82.237,128.56,85.573,126.713,87.802z"/>
</svg>
