<svg version="1.1" xmlns="http://www.w3.org/2000/svg" xmlns:xlink="http://www.w3.org/1999/xlink" x="0px" y="0px"
	 width="325.25px" height="103.5px" viewBox="0 0 325.25 103.5" enable-background="new 0 0 325.25 103.5" xml:space="preserve">
<g id="give_feedback">
	<g>
		<path fill="#FFFFFF" d="M11.047,70.625v0.82l-1.586,0.188c0.146,0.183,0.276,0.421,0.391,0.715
			c0.114,0.294,0.172,0.626,0.172,0.996c0,0.839-0.287,1.508-0.859,2.008c-0.573,0.5-1.359,0.75-2.359,0.75
			c-0.255,0-0.495-0.021-0.719-0.062c-0.552,0.292-0.828,0.659-0.828,1.102c0,0.234,0.096,0.407,0.289,0.52
			c0.192,0.112,0.523,0.168,0.992,0.168h1.516c0.927,0,1.639,0.195,2.137,0.586c0.497,0.391,0.746,0.958,0.746,1.703
			c0,0.948-0.38,1.671-1.141,2.168c-0.761,0.497-1.87,0.746-3.328,0.746c-1.12,0-1.983-0.208-2.59-0.625
			c-0.607-0.417-0.91-1.005-0.91-1.766c0-0.521,0.167-0.972,0.5-1.352c0.333-0.38,0.802-0.638,1.406-0.773
			c-0.219-0.099-0.402-0.253-0.551-0.461s-0.223-0.45-0.223-0.727c0-0.312,0.083-0.586,0.25-0.82c0.167-0.234,0.43-0.461,0.789-0.68
			c-0.443-0.183-0.804-0.492-1.082-0.93c-0.279-0.438-0.418-0.938-0.418-1.5c0-0.938,0.281-1.66,0.844-2.168
			s1.359-0.762,2.391-0.762c0.448,0,0.852,0.052,1.211,0.156H11.047z M4.219,80.625c0,0.464,0.195,0.815,0.586,1.055
			s0.95,0.359,1.68,0.359c1.088,0,1.895-0.163,2.418-0.488s0.785-0.767,0.785-1.324c0-0.464-0.144-0.785-0.43-0.965
			c-0.287-0.18-0.826-0.27-1.617-0.27H6.086c-0.589,0-1.047,0.141-1.375,0.422S4.219,80.099,4.219,80.625z M4.922,73.367
			c0,0.599,0.169,1.052,0.508,1.359c0.338,0.308,0.81,0.461,1.414,0.461c1.266,0,1.898-0.614,1.898-1.844
			c0-1.286-0.641-1.93-1.922-1.93c-0.609,0-1.078,0.164-1.406,0.492S4.922,72.722,4.922,73.367z"/>
		<path fill="#FFFFFF" d="M12.696,68.305c0-0.297,0.073-0.515,0.219-0.652c0.146-0.138,0.328-0.207,0.547-0.207
			c0.208,0,0.388,0.07,0.539,0.211c0.151,0.141,0.227,0.356,0.227,0.648S14.151,68.813,14,68.957
			c-0.151,0.144-0.331,0.215-0.539,0.215c-0.219,0-0.401-0.071-0.547-0.215C12.769,68.813,12.696,68.597,12.696,68.305z
			 M14.102,79.188h-1.297v-8.562h1.297V79.188z"/>
		<path fill="#FFFFFF" d="M18.727,79.188l-3.25-8.562h1.391l1.844,5.078c0.417,1.188,0.661,1.958,0.734,2.312h0.062
			c0.057-0.276,0.238-0.848,0.543-1.715s0.988-2.759,2.051-5.676h1.391l-3.25,8.562H18.727z"/>
		<path fill="#FFFFFF" d="M28.485,79.344c-1.266,0-2.265-0.386-2.996-1.156c-0.732-0.771-1.098-1.841-1.098-3.211
			c0-1.38,0.34-2.477,1.02-3.289s1.592-1.219,2.738-1.219c1.073,0,1.922,0.353,2.547,1.059s0.938,1.637,0.938,2.793v0.82h-5.898
			c0.026,1.005,0.28,1.769,0.762,2.289c0.481,0.521,1.16,0.781,2.035,0.781c0.922,0,1.833-0.192,2.734-0.578v1.156
			c-0.458,0.198-0.892,0.34-1.301,0.426C29.556,79.301,29.063,79.344,28.485,79.344z M28.133,71.555
			c-0.688,0-1.236,0.224-1.645,0.672c-0.409,0.448-0.65,1.067-0.723,1.859h4.477c0-0.817-0.183-1.444-0.547-1.879
			C29.331,71.772,28.81,71.555,28.133,71.555z"/>
		<path fill="#FFFFFF" d="M41.86,71.633h-2.18v7.555h-1.297v-7.555h-1.531v-0.586l1.531-0.469v-0.477
			c0-2.104,0.919-3.156,2.758-3.156c0.453,0,0.984,0.091,1.594,0.273l-0.336,1.039c-0.5-0.161-0.927-0.242-1.281-0.242
			c-0.49,0-0.852,0.163-1.086,0.488s-0.352,0.848-0.352,1.566v0.555h2.18V71.633z"/>
		<path fill="#FFFFFF" d="M47.04,79.344c-1.266,0-2.265-0.386-2.996-1.156c-0.732-0.771-1.098-1.841-1.098-3.211
			c0-1.38,0.34-2.477,1.02-3.289s1.592-1.219,2.738-1.219c1.073,0,1.922,0.353,2.547,1.059s0.938,1.637,0.938,2.793v0.82H44.29
			c0.026,1.005,0.28,1.769,0.762,2.289c0.481,0.521,1.16,0.781,2.035,0.781c0.922,0,1.833-0.192,2.734-0.578v1.156
			c-0.458,0.198-0.892,0.34-1.301,0.426C48.111,79.301,47.618,79.344,47.04,79.344z M46.688,71.555
			c-0.688,0-1.236,0.224-1.645,0.672c-0.409,0.448-0.65,1.067-0.723,1.859h4.477c0-0.817-0.183-1.444-0.547-1.879
			C47.886,71.772,47.365,71.555,46.688,71.555z"/>
		<path fill="#FFFFFF" d="M56.016,79.344c-1.266,0-2.265-0.386-2.996-1.156c-0.732-0.771-1.098-1.841-1.098-3.211
			c0-1.38,0.34-2.477,1.02-3.289s1.592-1.219,2.738-1.219c1.073,0,1.922,0.353,2.547,1.059s0.938,1.637,0.938,2.793v0.82h-5.898
			c0.026,1.005,0.28,1.769,0.762,2.289c0.481,0.521,1.16,0.781,2.035,0.781c0.922,0,1.833-0.192,2.734-0.578v1.156
			c-0.458,0.198-0.892,0.34-1.301,0.426C57.087,79.301,56.594,79.344,56.016,79.344z M55.665,71.555
			c-0.688,0-1.236,0.224-1.645,0.672c-0.409,0.448-0.65,1.067-0.723,1.859h4.477c0-0.817-0.183-1.444-0.547-1.879
			C56.862,71.772,56.341,71.555,55.665,71.555z"/>
		<path fill="#FFFFFF" d="M67.204,78.039h-0.07c-0.599,0.87-1.495,1.305-2.688,1.305c-1.12,0-1.991-0.383-2.613-1.148
			c-0.623-0.766-0.934-1.854-0.934-3.266s0.312-2.508,0.938-3.289s1.495-1.172,2.609-1.172c1.161,0,2.052,0.422,2.672,1.266h0.102
			l-0.055-0.617l-0.031-0.602v-3.484h1.297v12.156h-1.055L67.204,78.039z M64.61,78.258c0.885,0,1.527-0.241,1.926-0.723
			s0.598-1.259,0.598-2.332V74.93c0-1.214-0.202-2.079-0.605-2.598c-0.404-0.519-1.048-0.777-1.934-0.777
			c-0.761,0-1.343,0.296-1.746,0.887c-0.404,0.591-0.605,1.426-0.605,2.504c0,1.094,0.2,1.919,0.602,2.477
			C63.245,77.979,63.833,78.258,64.61,78.258z"/>
		<path fill="#FFFFFF" d="M75.165,70.484c1.125,0,1.999,0.384,2.621,1.152c0.622,0.769,0.934,1.855,0.934,3.262
			s-0.314,2.499-0.941,3.277c-0.628,0.778-1.499,1.168-2.613,1.168c-0.558,0-1.066-0.103-1.527-0.309s-0.848-0.522-1.16-0.949
			h-0.094l-0.273,1.102h-0.93V67.031h1.297v2.953c0,0.661-0.021,1.255-0.062,1.781h0.062C73.081,70.911,73.977,70.484,75.165,70.484
			z M74.977,71.57c-0.886,0-1.523,0.254-1.914,0.762s-0.586,1.363-0.586,2.566s0.2,2.063,0.602,2.582
			c0.401,0.519,1.044,0.777,1.93,0.777c0.797,0,1.391-0.29,1.781-0.871s0.586-1.415,0.586-2.504c0-1.114-0.195-1.945-0.586-2.492
			S75.794,71.57,74.977,71.57z"/>
		<path fill="#FFFFFF" d="M86.25,79.188l-0.258-1.219H85.93c-0.427,0.536-0.853,0.899-1.277,1.09
			c-0.425,0.19-0.955,0.285-1.59,0.285c-0.849,0-1.515-0.219-1.996-0.656c-0.482-0.438-0.723-1.06-0.723-1.867
			c0-1.729,1.383-2.636,4.148-2.719l1.453-0.047v-0.531c0-0.672-0.145-1.168-0.434-1.488s-0.751-0.48-1.387-0.48
			c-0.714,0-1.521,0.219-2.422,0.656l-0.398-0.992c0.422-0.229,0.884-0.409,1.387-0.539c0.502-0.13,1.006-0.195,1.512-0.195
			c1.021,0,1.777,0.227,2.27,0.68s0.738,1.18,0.738,2.18v5.844H86.25z M83.321,78.273c0.807,0,1.441-0.222,1.902-0.664
			s0.691-1.062,0.691-1.859v-0.773l-1.297,0.055c-1.031,0.036-1.775,0.196-2.23,0.48c-0.456,0.284-0.684,0.726-0.684,1.324
			c0,0.469,0.142,0.825,0.426,1.07C82.413,78.151,82.81,78.273,83.321,78.273z"/>
		<path fill="#FFFFFF" d="M93.305,79.344c-1.24,0-2.199-0.382-2.879-1.145s-1.02-1.843-1.02-3.238c0-1.433,0.345-2.539,1.035-3.32
			c0.69-0.781,1.673-1.172,2.949-1.172c0.411,0,0.823,0.044,1.234,0.133c0.411,0.089,0.734,0.192,0.969,0.312l-0.398,1.102
			c-0.287-0.114-0.599-0.21-0.938-0.285c-0.339-0.075-0.638-0.113-0.898-0.113c-1.74,0-2.609,1.109-2.609,3.328
			c0,1.052,0.212,1.859,0.637,2.422c0.424,0.562,1.053,0.844,1.887,0.844c0.713,0,1.445-0.153,2.195-0.461v1.148
			C94.896,79.195,94.175,79.344,93.305,79.344z"/>
		<path fill="#FFFFFF" d="M98.782,74.805c0.224-0.317,0.565-0.734,1.023-1.25l2.766-2.93h1.539l-3.469,3.648l3.711,4.914h-1.57
			l-3.023-4.047l-0.977,0.844v3.203H97.5V67.031h1.281v6.445c0,0.286-0.021,0.729-0.062,1.328H98.782z"/>
	</g>
	<g>
		<path fill="#FFFFFF" d="M137.595,78.748c-1.266,0-2.265-0.386-2.996-1.156c-0.732-0.771-1.098-1.841-1.098-3.211
			c0-1.38,0.34-2.477,1.02-3.289s1.592-1.219,2.738-1.219c1.073,0,1.922,0.353,2.547,1.059s0.938,1.637,0.938,2.793v0.82h-5.898
			c0.026,1.005,0.28,1.769,0.762,2.289c0.481,0.521,1.16,0.781,2.035,0.781c0.922,0,1.833-0.192,2.734-0.578v1.156
			c-0.458,0.198-0.892,0.34-1.301,0.426C138.666,78.705,138.173,78.748,137.595,78.748z M137.243,70.959
			c-0.688,0-1.236,0.224-1.645,0.672c-0.409,0.448-0.65,1.067-0.723,1.859h4.477c0-0.817-0.183-1.444-0.547-1.879
			C138.441,71.177,137.92,70.959,137.243,70.959z"/>
		<path fill="#FFFFFF" d="M145.017,74.209l-2.977-4.18h1.477l2.258,3.281l2.25-3.281h1.461l-2.977,4.18l3.133,4.383h-1.469
			l-2.398-3.469l-2.422,3.469h-1.469L145.017,74.209z"/>
		<path fill="#FFFFFF" d="M155.321,78.748c-0.558,0-1.066-0.103-1.527-0.309s-0.848-0.522-1.16-0.949h-0.094
			c0.062,0.5,0.094,0.974,0.094,1.422v3.523h-1.297V70.029h1.055l0.18,1.172h0.062c0.333-0.469,0.721-0.808,1.164-1.016
			c0.442-0.208,0.95-0.312,1.523-0.312c1.135,0,2.012,0.388,2.629,1.164s0.926,1.864,0.926,3.266c0,1.406-0.314,2.499-0.941,3.277
			C157.307,78.358,156.436,78.748,155.321,78.748z M155.134,70.975c-0.875,0-1.508,0.242-1.898,0.727s-0.591,1.255-0.602,2.312
			v0.289c0,1.203,0.2,2.063,0.602,2.582c0.401,0.519,1.044,0.777,1.93,0.777c0.739,0,1.319-0.3,1.738-0.898
			c0.419-0.599,0.629-1.425,0.629-2.477c0-1.067-0.21-1.887-0.629-2.457C156.484,71.26,155.894,70.975,155.134,70.975z"/>
		<path fill="#FFFFFF" d="M168.532,74.303c0,1.396-0.352,2.485-1.055,3.27s-1.675,1.176-2.914,1.176
			c-0.766,0-1.445-0.18-2.039-0.539s-1.053-0.875-1.375-1.547c-0.323-0.672-0.484-1.458-0.484-2.359
			c0-1.396,0.349-2.483,1.047-3.262s1.667-1.168,2.906-1.168c1.198,0,2.149,0.398,2.855,1.195S168.532,72.943,168.532,74.303z
			 M162.009,74.303c0,1.094,0.219,1.927,0.656,2.5s1.081,0.859,1.93,0.859s1.493-0.285,1.934-0.855s0.66-1.405,0.66-2.504
			c0-1.089-0.22-1.915-0.66-2.48s-1.09-0.848-1.949-0.848c-0.849,0-1.489,0.278-1.922,0.836S162.009,73.198,162.009,74.303z"/>
		<path fill="#FFFFFF" d="M174.712,69.873c0.38,0,0.722,0.031,1.023,0.094l-0.18,1.203c-0.354-0.078-0.667-0.117-0.938-0.117
			c-0.692,0-1.285,0.281-1.777,0.844s-0.738,1.263-0.738,2.102v4.594h-1.297v-8.562h1.07l0.148,1.586h0.062
			c0.317-0.558,0.7-0.987,1.148-1.289S174.176,69.873,174.712,69.873z"/>
		<path fill="#FFFFFF" d="M180.103,77.678c0.229,0,0.45-0.017,0.664-0.051s0.383-0.069,0.508-0.105v0.992
			c-0.141,0.067-0.348,0.124-0.621,0.168s-0.52,0.066-0.738,0.066c-1.656,0-2.484-0.872-2.484-2.617v-5.094h-1.227v-0.625
			l1.227-0.539l0.547-1.828h0.75v1.984h2.484v1.008h-2.484v5.039c0,0.516,0.122,0.911,0.367,1.188S179.676,77.678,180.103,77.678z"
			/>
		<path fill="#FFFFFF" d="M192.407,78.592l-0.258-1.219h-0.062c-0.427,0.536-0.853,0.899-1.277,1.09s-0.954,0.285-1.59,0.285
			c-0.849,0-1.515-0.219-1.996-0.656s-0.723-1.06-0.723-1.867c0-1.729,1.383-2.636,4.148-2.719l1.453-0.047v-0.531
			c0-0.672-0.145-1.168-0.434-1.488s-0.751-0.48-1.387-0.48c-0.714,0-1.521,0.219-2.422,0.656l-0.398-0.992
			c0.422-0.229,0.884-0.409,1.387-0.539s1.007-0.195,1.512-0.195c1.021,0,1.777,0.227,2.27,0.68s0.738,1.18,0.738,2.18v5.844
			H192.407z M189.478,77.678c0.808,0,1.441-0.222,1.902-0.664s0.691-1.062,0.691-1.859v-0.773l-1.297,0.055
			c-1.031,0.036-1.774,0.196-2.23,0.48s-0.684,0.726-0.684,1.324c0,0.469,0.142,0.825,0.426,1.07S188.967,77.678,189.478,77.678z"/>
		<path fill="#FFFFFF" d="M205.673,78.592h-6.211v-0.883l4.672-6.672h-4.383v-1.008h5.805v1.008l-4.609,6.547h4.727V78.592z"/>
		<path fill="#FFFFFF" d="M207.571,67.709c0-0.297,0.073-0.515,0.219-0.652s0.328-0.207,0.547-0.207c0.208,0,0.388,0.07,0.539,0.211
			s0.227,0.356,0.227,0.648s-0.075,0.509-0.227,0.652s-0.331,0.215-0.539,0.215c-0.219,0-0.401-0.071-0.547-0.215
			S207.571,68.001,207.571,67.709z M208.978,78.592h-1.297v-8.562h1.297V78.592z"/>
		<path fill="#FFFFFF" d="M215.712,78.748c-0.558,0-1.066-0.103-1.527-0.309s-0.848-0.522-1.16-0.949h-0.094
			c0.062,0.5,0.094,0.974,0.094,1.422v3.523h-1.297V70.029h1.055l0.18,1.172h0.062c0.333-0.469,0.722-0.808,1.164-1.016
			s0.95-0.312,1.523-0.312c1.136,0,2.012,0.388,2.629,1.164s0.926,1.864,0.926,3.266c0,1.406-0.313,2.499-0.941,3.277
			S216.826,78.748,215.712,78.748z M215.524,70.975c-0.875,0-1.508,0.242-1.898,0.727s-0.591,1.255-0.602,2.312v0.289
			c0,1.203,0.2,2.063,0.602,2.582s1.044,0.777,1.93,0.777c0.739,0,1.319-0.3,1.738-0.898s0.629-1.425,0.629-2.477
			c0-1.067-0.21-1.887-0.629-2.457S216.285,70.975,215.524,70.975z"/>
		<path fill="#FFFFFF" d="M230.954,78.592l-0.258-1.219h-0.062c-0.427,0.536-0.853,0.899-1.277,1.09s-0.954,0.285-1.59,0.285
			c-0.849,0-1.515-0.219-1.996-0.656s-0.723-1.06-0.723-1.867c0-1.729,1.383-2.636,4.148-2.719l1.453-0.047v-0.531
			c0-0.672-0.145-1.168-0.434-1.488s-0.751-0.48-1.387-0.48c-0.714,0-1.521,0.219-2.422,0.656l-0.398-0.992
			c0.422-0.229,0.884-0.409,1.387-0.539s1.007-0.195,1.512-0.195c1.021,0,1.777,0.227,2.27,0.68s0.738,1.18,0.738,2.18v5.844
			H230.954z M228.024,77.678c0.808,0,1.441-0.222,1.902-0.664s0.691-1.062,0.691-1.859v-0.773l-1.297,0.055
			c-1.031,0.036-1.774,0.196-2.23,0.48s-0.684,0.726-0.684,1.324c0,0.469,0.142,0.825,0.426,1.07S227.514,77.678,228.024,77.678z"/>
		<path fill="#FFFFFF" d="M238.493,69.873c0.38,0,0.722,0.031,1.023,0.094l-0.18,1.203c-0.354-0.078-0.667-0.117-0.938-0.117
			c-0.692,0-1.285,0.281-1.777,0.844s-0.738,1.263-0.738,2.102v4.594h-1.297v-8.562h1.07l0.148,1.586h0.062
			c0.317-0.558,0.7-0.987,1.148-1.289S237.957,69.873,238.493,69.873z"/>
		<path fill="#FFFFFF" d="M244.54,78.748c-1.239,0-2.199-0.382-2.879-1.145s-1.02-1.843-1.02-3.238c0-1.433,0.345-2.539,1.035-3.32
			s1.673-1.172,2.949-1.172c0.411,0,0.823,0.044,1.234,0.133s0.734,0.192,0.969,0.312l-0.398,1.102
			c-0.286-0.114-0.599-0.21-0.938-0.285s-0.638-0.113-0.898-0.113c-1.739,0-2.609,1.109-2.609,3.328
			c0,1.052,0.212,1.859,0.637,2.422s1.054,0.844,1.887,0.844c0.714,0,1.445-0.153,2.195-0.461v1.148
			C246.131,78.6,245.41,78.748,244.54,78.748z"/>
		<path fill="#FFFFFF" d="M254.595,78.592v-5.539c0-0.698-0.159-1.219-0.477-1.562s-0.815-0.516-1.492-0.516
			c-0.901,0-1.559,0.245-1.973,0.734s-0.621,1.292-0.621,2.406v4.477h-1.297V66.436h1.297v3.68c0,0.442-0.021,0.81-0.062,1.102
			h0.078c0.255-0.411,0.618-0.735,1.09-0.973s1.009-0.355,1.613-0.355c1.047,0,1.832,0.249,2.355,0.746s0.785,1.288,0.785,2.371
			v5.586H254.595z"/>
		<path fill="#FFFFFF" d="M258.446,67.709c0-0.297,0.073-0.515,0.219-0.652s0.328-0.207,0.547-0.207c0.208,0,0.388,0.07,0.539,0.211
			s0.227,0.356,0.227,0.648s-0.075,0.509-0.227,0.652s-0.331,0.215-0.539,0.215c-0.219,0-0.401-0.071-0.547-0.215
			S258.446,68.001,258.446,67.709z M259.853,78.592h-1.297v-8.562h1.297V78.592z"/>
		<path fill="#FFFFFF" d="M264.478,78.592l-3.25-8.562h1.391l1.844,5.078c0.417,1.188,0.661,1.958,0.734,2.312h0.062
			c0.058-0.276,0.238-0.848,0.543-1.715s0.988-2.759,2.051-5.676h1.391l-3.25,8.562H264.478z"/>
		<path fill="#FFFFFF" d="M274.235,78.748c-1.266,0-2.265-0.386-2.996-1.156s-1.098-1.841-1.098-3.211c0-1.38,0.34-2.477,1.02-3.289
			s1.593-1.219,2.738-1.219c1.073,0,1.922,0.353,2.547,1.059s0.938,1.637,0.938,2.793v0.82h-5.898
			c0.026,1.005,0.28,1.769,0.762,2.289s1.16,0.781,2.035,0.781c0.922,0,1.833-0.192,2.734-0.578v1.156
			c-0.458,0.198-0.892,0.34-1.301,0.426S274.813,78.748,274.235,78.748z M273.884,70.959c-0.688,0-1.235,0.224-1.645,0.672
			s-0.649,1.067-0.723,1.859h4.477c0-0.817-0.183-1.444-0.547-1.879S274.561,70.959,273.884,70.959z"/>
		<path fill="#FFFFFF" d="M294.899,78.592l-1.57-5.023c-0.099-0.308-0.284-1.005-0.555-2.094h-0.062
			c-0.208,0.911-0.391,1.614-0.547,2.109l-1.617,5.008h-1.5l-2.336-8.562h1.359c0.552,2.151,0.973,3.789,1.262,4.914
			s0.454,1.883,0.496,2.273h0.062c0.058-0.297,0.149-0.681,0.277-1.152s0.238-0.845,0.332-1.121l1.57-4.914h1.406l1.531,4.914
			c0.292,0.896,0.489,1.648,0.594,2.258h0.062c0.021-0.188,0.077-0.477,0.168-0.867s0.634-2.492,1.629-6.305h1.344l-2.367,8.562
			H294.899z"/>
		<path fill="#FFFFFF" d="M300.243,67.709c0-0.297,0.073-0.515,0.219-0.652s0.328-0.207,0.547-0.207c0.208,0,0.388,0.07,0.539,0.211
			s0.227,0.356,0.227,0.648s-0.075,0.509-0.227,0.652s-0.331,0.215-0.539,0.215c-0.219,0-0.401-0.071-0.547-0.215
			S300.243,68.001,300.243,67.709z M301.649,78.592h-1.297v-8.562h1.297V78.592z"/>
		<path fill="#FFFFFF" d="M307.165,77.678c0.229,0,0.45-0.017,0.664-0.051s0.383-0.069,0.508-0.105v0.992
			c-0.141,0.067-0.348,0.124-0.621,0.168s-0.52,0.066-0.738,0.066c-1.656,0-2.484-0.872-2.484-2.617v-5.094h-1.227v-0.625
			l1.227-0.539l0.547-1.828h0.75v1.984h2.484v1.008h-2.484v5.039c0,0.516,0.122,0.911,0.367,1.188S306.738,77.678,307.165,77.678z"
			/>
		<path fill="#FFFFFF" d="M315.907,78.592v-5.539c0-0.698-0.159-1.219-0.477-1.562s-0.815-0.516-1.492-0.516
			c-0.901,0-1.559,0.245-1.973,0.734s-0.621,1.292-0.621,2.406v4.477h-1.297V66.436h1.297v3.68c0,0.442-0.021,0.81-0.062,1.102
			h0.078c0.255-0.411,0.618-0.735,1.09-0.973s1.009-0.355,1.613-0.355c1.047,0,1.832,0.249,2.355,0.746s0.785,1.288,0.785,2.371
			v5.586H315.907z"/>
		<path fill="#FFFFFF" d="M148.157,90.029h1.391l1.875,4.883c0.411,1.114,0.667,1.919,0.766,2.414h0.062
			c0.067-0.266,0.209-0.72,0.426-1.363c0.216-0.644,0.923-2.621,2.121-5.934h1.391l-3.68,9.75c-0.365,0.964-0.791,1.647-1.277,2.051
			c-0.487,0.403-1.085,0.605-1.793,0.605c-0.396,0-0.787-0.044-1.172-0.133v-1.039c0.286,0.062,0.606,0.094,0.961,0.094
			c0.891,0,1.526-0.5,1.906-1.5l0.477-1.219L148.157,90.029z"/>
		<path fill="#FFFFFF" d="M164.97,94.303c0,1.396-0.352,2.485-1.055,3.27s-1.675,1.176-2.914,1.176c-0.766,0-1.445-0.18-2.039-0.539
			s-1.052-0.875-1.375-1.547c-0.323-0.672-0.484-1.458-0.484-2.359c0-1.396,0.349-2.483,1.047-3.262
			c0.698-0.778,1.667-1.168,2.906-1.168c1.198,0,2.149,0.398,2.855,1.195S164.97,92.943,164.97,94.303z M158.446,94.303
			c0,1.094,0.219,1.927,0.656,2.5s1.081,0.859,1.93,0.859c0.849,0,1.493-0.285,1.934-0.855s0.66-1.405,0.66-2.504
			c0-1.089-0.22-1.915-0.66-2.48s-1.09-0.848-1.949-0.848c-0.849,0-1.49,0.278-1.922,0.836
			C158.662,92.368,158.446,93.198,158.446,94.303z"/>
		<path fill="#FFFFFF" d="M168.462,90.029v5.555c0,0.698,0.159,1.219,0.477,1.562s0.815,0.516,1.492,0.516
			c0.896,0,1.551-0.245,1.965-0.734s0.621-1.289,0.621-2.398v-4.5h1.297v8.562h-1.07l-0.188-1.148h-0.07
			c-0.266,0.422-0.634,0.745-1.105,0.969s-1.009,0.336-1.613,0.336c-1.042,0-1.821-0.247-2.34-0.742s-0.777-1.286-0.777-2.375
			v-5.602H168.462z"/>
		<path fill="#FFFFFF" d="M180.97,89.873c0.38,0,0.722,0.031,1.023,0.094l-0.18,1.203c-0.354-0.078-0.667-0.117-0.938-0.117
			c-0.692,0-1.285,0.281-1.777,0.844s-0.738,1.263-0.738,2.102v4.594h-1.297v-8.562h1.07l0.148,1.586h0.062
			c0.317-0.558,0.7-0.987,1.148-1.289S180.434,89.873,180.97,89.873z"/>
		<path fill="#FFFFFF" d="M193.017,98.592l-0.258-1.219h-0.062c-0.427,0.536-0.853,0.899-1.277,1.09s-0.954,0.285-1.59,0.285
			c-0.849,0-1.515-0.219-1.996-0.656s-0.723-1.06-0.723-1.867c0-1.729,1.383-2.636,4.148-2.719l1.453-0.047v-0.531
			c0-0.672-0.145-1.168-0.434-1.488s-0.751-0.48-1.387-0.48c-0.714,0-1.521,0.219-2.422,0.656l-0.398-0.992
			c0.422-0.229,0.884-0.409,1.387-0.539s1.007-0.195,1.512-0.195c1.021,0,1.777,0.227,2.27,0.68s0.738,1.18,0.738,2.18v5.844
			H193.017z M190.087,97.678c0.808,0,1.441-0.222,1.902-0.664s0.691-1.062,0.691-1.859v-0.773l-1.297,0.055
			c-1.031,0.036-1.774,0.196-2.23,0.48s-0.684,0.726-0.684,1.324c0,0.469,0.142,0.825,0.426,1.07S189.576,97.678,190.087,97.678z"/>
		<path fill="#FFFFFF" d="M200.634,98.748c-0.558,0-1.066-0.103-1.527-0.309s-0.848-0.522-1.16-0.949h-0.094
			c0.062,0.5,0.094,0.974,0.094,1.422v3.523h-1.297V90.029h1.055l0.18,1.172h0.062c0.333-0.469,0.722-0.808,1.164-1.016
			s0.95-0.312,1.523-0.312c1.136,0,2.012,0.388,2.629,1.164s0.926,1.864,0.926,3.266c0,1.406-0.313,2.499-0.941,3.277
			S201.748,98.748,200.634,98.748z M200.446,90.975c-0.875,0-1.508,0.242-1.898,0.727s-0.591,1.255-0.602,2.312v0.289
			c0,1.203,0.2,2.063,0.602,2.582s1.044,0.777,1.93,0.777c0.739,0,1.319-0.3,1.738-0.898s0.629-1.425,0.629-2.477
			c0-1.067-0.21-1.887-0.629-2.457S201.207,90.975,200.446,90.975z"/>
		<path fill="#FFFFFF" d="M210.438,98.748c-0.558,0-1.066-0.103-1.527-0.309s-0.848-0.522-1.16-0.949h-0.094
			c0.062,0.5,0.094,0.974,0.094,1.422v3.523h-1.297V90.029h1.055l0.18,1.172h0.062c0.333-0.469,0.722-0.808,1.164-1.016
			s0.95-0.312,1.523-0.312c1.136,0,2.012,0.388,2.629,1.164s0.926,1.864,0.926,3.266c0,1.406-0.313,2.499-0.941,3.277
			S211.553,98.748,210.438,98.748z M210.251,90.975c-0.875,0-1.508,0.242-1.898,0.727s-0.591,1.255-0.602,2.312v0.289
			c0,1.203,0.2,2.063,0.602,2.582s1.044,0.777,1.93,0.777c0.739,0,1.319-0.3,1.738-0.898s0.629-1.425,0.629-2.477
			c0-1.067-0.21-1.887-0.629-2.457S211.012,90.975,210.251,90.975z"/>
		<path fill="#FFFFFF" d="M217.556,98.592h-1.297V86.436h1.297V98.592z"/>
		<path fill="#FFFFFF" d="M220.196,87.709c0-0.297,0.073-0.515,0.219-0.652s0.328-0.207,0.547-0.207c0.208,0,0.388,0.07,0.539,0.211
			s0.227,0.356,0.227,0.648s-0.075,0.509-0.227,0.652s-0.331,0.215-0.539,0.215c-0.219,0-0.401-0.071-0.547-0.215
			S220.196,88.001,220.196,87.709z M221.603,98.592h-1.297v-8.562h1.297V98.592z"/>
		<path fill="#FFFFFF" d="M227.774,98.748c-1.239,0-2.199-0.382-2.879-1.145s-1.02-1.843-1.02-3.238c0-1.433,0.345-2.539,1.035-3.32
			s1.673-1.172,2.949-1.172c0.411,0,0.823,0.044,1.234,0.133s0.734,0.192,0.969,0.312l-0.398,1.102
			c-0.286-0.114-0.599-0.21-0.938-0.285s-0.638-0.113-0.898-0.113c-1.739,0-2.609,1.109-2.609,3.328
			c0,1.052,0.212,1.859,0.637,2.422s1.054,0.844,1.887,0.844c0.714,0,1.445-0.153,2.195-0.461v1.148
			C229.365,98.6,228.645,98.748,227.774,98.748z"/>
		<path fill="#FFFFFF" d="M237.235,98.592l-0.258-1.219h-0.062c-0.427,0.536-0.853,0.899-1.277,1.09s-0.954,0.285-1.59,0.285
			c-0.849,0-1.515-0.219-1.996-0.656s-0.723-1.06-0.723-1.867c0-1.729,1.383-2.636,4.148-2.719l1.453-0.047v-0.531
			c0-0.672-0.145-1.168-0.434-1.488s-0.751-0.48-1.387-0.48c-0.714,0-1.521,0.219-2.422,0.656l-0.398-0.992
			c0.422-0.229,0.884-0.409,1.387-0.539s1.007-0.195,1.512-0.195c1.021,0,1.777,0.227,2.27,0.68s0.738,1.18,0.738,2.18v5.844
			H237.235z M234.306,97.678c0.808,0,1.441-0.222,1.902-0.664s0.691-1.062,0.691-1.859v-0.773l-1.297,0.055
			c-1.031,0.036-1.774,0.196-2.23,0.48s-0.684,0.726-0.684,1.324c0,0.469,0.142,0.825,0.426,1.07S233.795,97.678,234.306,97.678z"/>
		<path fill="#FFFFFF" d="M243.634,97.678c0.229,0,0.45-0.017,0.664-0.051s0.383-0.069,0.508-0.105v0.992
			c-0.141,0.067-0.348,0.124-0.621,0.168s-0.52,0.066-0.738,0.066c-1.656,0-2.484-0.872-2.484-2.617v-5.094h-1.227v-0.625
			l1.227-0.539l0.547-1.828h0.75v1.984h2.484v1.008h-2.484v5.039c0,0.516,0.122,0.911,0.367,1.188S243.207,97.678,243.634,97.678z"
			/>
		<path fill="#FFFFFF" d="M246.407,87.709c0-0.297,0.073-0.515,0.219-0.652s0.328-0.207,0.547-0.207c0.208,0,0.388,0.07,0.539,0.211
			s0.227,0.356,0.227,0.648s-0.075,0.509-0.227,0.652s-0.331,0.215-0.539,0.215c-0.219,0-0.401-0.071-0.547-0.215
			S246.407,88.001,246.407,87.709z M247.813,98.592h-1.297v-8.562h1.297V98.592z"/>
		<path fill="#FFFFFF" d="M257.954,94.303c0,1.396-0.352,2.485-1.055,3.27s-1.675,1.176-2.914,1.176
			c-0.766,0-1.445-0.18-2.039-0.539s-1.052-0.875-1.375-1.547s-0.484-1.458-0.484-2.359c0-1.396,0.349-2.483,1.047-3.262
			s1.667-1.168,2.906-1.168c1.198,0,2.149,0.398,2.855,1.195S257.954,92.943,257.954,94.303z M251.431,94.303
			c0,1.094,0.219,1.927,0.656,2.5s1.081,0.859,1.93,0.859s1.493-0.285,1.934-0.855s0.66-1.405,0.66-2.504
			c0-1.089-0.22-1.915-0.66-2.48s-1.09-0.848-1.949-0.848c-0.849,0-1.489,0.278-1.922,0.836S251.431,93.198,251.431,94.303z"/>
		<path fill="#FFFFFF" d="M266.087,98.592v-5.539c0-0.698-0.159-1.219-0.477-1.562s-0.815-0.516-1.492-0.516
			c-0.896,0-1.552,0.242-1.969,0.727s-0.625,1.284-0.625,2.398v4.492h-1.297v-8.562h1.055l0.211,1.172h0.062
			c0.266-0.422,0.638-0.749,1.117-0.98s1.013-0.348,1.602-0.348c1.031,0,1.808,0.249,2.328,0.746s0.781,1.293,0.781,2.387v5.586
			H266.087z"/>
		<path fill="#FFFFFF" d="M278.063,91.037h-2.18v7.555h-1.297v-7.555h-1.531v-0.586l1.531-0.469v-0.477
			c0-2.104,0.919-3.156,2.758-3.156c0.453,0,0.984,0.091,1.594,0.273l-0.336,1.039c-0.5-0.161-0.927-0.242-1.281-0.242
			c-0.489,0-0.852,0.163-1.086,0.488s-0.352,0.848-0.352,1.566v0.555h2.18V91.037z M279.517,87.709c0-0.297,0.073-0.515,0.219-0.652
			s0.328-0.207,0.547-0.207c0.208,0,0.388,0.07,0.539,0.211s0.227,0.356,0.227,0.648s-0.075,0.509-0.227,0.652
			s-0.331,0.215-0.539,0.215c-0.219,0-0.401-0.071-0.547-0.215S279.517,88.001,279.517,87.709z M280.923,98.592h-1.297v-8.562h1.297
			V98.592z"/>
		<path fill="#FFFFFF" d="M284.97,98.592h-1.297V86.436h1.297V98.592z"/>
		<path fill="#FFFFFF" d="M291.337,98.748c-1.266,0-2.265-0.386-2.996-1.156s-1.098-1.841-1.098-3.211c0-1.38,0.34-2.477,1.02-3.289
			s1.593-1.219,2.738-1.219c1.073,0,1.922,0.353,2.547,1.059s0.938,1.637,0.938,2.793v0.82h-5.898
			c0.026,1.005,0.28,1.769,0.762,2.289s1.16,0.781,2.035,0.781c0.922,0,1.833-0.192,2.734-0.578v1.156
			c-0.458,0.198-0.892,0.34-1.301,0.426S291.915,98.748,291.337,98.748z M290.985,90.959c-0.688,0-1.235,0.224-1.645,0.672
			s-0.649,1.067-0.723,1.859h4.477c0-0.817-0.183-1.444-0.547-1.879S291.662,90.959,290.985,90.959z"/>
		<path fill="#FFFFFF" d="M302.22,96.256c0,0.797-0.297,1.411-0.891,1.844s-1.427,0.648-2.5,0.648c-1.136,0-2.021-0.18-2.656-0.539
			v-1.203c0.411,0.208,0.853,0.372,1.324,0.492s0.926,0.18,1.363,0.18c0.677,0,1.198-0.108,1.562-0.324s0.547-0.546,0.547-0.988
			c0-0.333-0.145-0.618-0.434-0.855s-0.853-0.517-1.691-0.84c-0.797-0.297-1.363-0.556-1.699-0.777s-0.586-0.473-0.75-0.754
			s-0.246-0.617-0.246-1.008c0-0.698,0.284-1.249,0.852-1.652s1.347-0.605,2.336-0.605c0.922,0,1.823,0.188,2.703,0.562
			l-0.461,1.055c-0.859-0.354-1.638-0.531-2.336-0.531c-0.614,0-1.078,0.097-1.391,0.289s-0.469,0.458-0.469,0.797
			c0,0.229,0.059,0.425,0.176,0.586s0.306,0.315,0.566,0.461s0.761,0.356,1.5,0.633c1.016,0.37,1.702,0.742,2.059,1.117
			S302.22,95.688,302.22,96.256z"/>
	</g>
	<g>
		<path fill="#FFFFFF" d="M105.282,38.688v-5.539c0-0.698-0.159-1.219-0.477-1.562c-0.318-0.344-0.815-0.516-1.492-0.516
			c-0.896,0-1.552,0.242-1.969,0.727c-0.417,0.484-0.625,1.284-0.625,2.398v4.492h-1.297v-8.562h1.055l0.211,1.172h0.062
			c0.266-0.422,0.638-0.749,1.117-0.98c0.479-0.231,1.013-0.348,1.602-0.348c1.031,0,1.807,0.249,2.328,0.746
			c0.521,0.498,0.781,1.293,0.781,2.387v5.586H105.282z"/>
		<path fill="#FFFFFF" d="M116.634,34.398c0,1.396-0.352,2.486-1.055,3.27c-0.703,0.784-1.675,1.176-2.914,1.176
			c-0.766,0-1.445-0.18-2.039-0.539s-1.052-0.875-1.375-1.547c-0.323-0.672-0.484-1.458-0.484-2.359
			c0-1.396,0.349-2.483,1.047-3.262c0.698-0.778,1.667-1.168,2.906-1.168c1.198,0,2.149,0.398,2.855,1.195
			C116.281,31.961,116.634,33.039,116.634,34.398z M110.11,34.398c0,1.094,0.219,1.927,0.656,2.5
			c0.438,0.573,1.081,0.859,1.93,0.859c0.849,0,1.493-0.285,1.934-0.855c0.44-0.57,0.66-1.405,0.66-2.504
			c0-1.088-0.22-1.915-0.66-2.48c-0.44-0.565-1.09-0.848-1.949-0.848c-0.849,0-1.49,0.279-1.922,0.836
			C110.326,32.464,110.11,33.294,110.11,34.398z"/>
		<path fill="#FFFFFF" d="M121.673,37.773c0.229,0,0.45-0.017,0.664-0.051c0.213-0.034,0.383-0.069,0.508-0.105v0.992
			c-0.141,0.068-0.348,0.124-0.621,0.168c-0.273,0.044-0.52,0.066-0.738,0.066c-1.656,0-2.484-0.872-2.484-2.617v-5.094h-1.227
			v-0.625l1.227-0.539l0.547-1.828h0.75v1.984h2.484v1.008h-2.484v5.039c0,0.516,0.122,0.912,0.367,1.188
			C120.91,37.636,121.246,37.773,121.673,37.773z"/>
		<path fill="#FFFFFF" d="M124.446,27.805c0-0.297,0.073-0.514,0.219-0.652c0.146-0.138,0.328-0.207,0.547-0.207
			c0.208,0,0.388,0.07,0.539,0.211c0.151,0.141,0.227,0.357,0.227,0.648c0,0.292-0.076,0.509-0.227,0.652
			c-0.151,0.144-0.331,0.215-0.539,0.215c-0.219,0-0.401-0.071-0.547-0.215C124.519,28.314,124.446,28.097,124.446,27.805z
			 M125.853,38.688h-1.297v-8.562h1.297V38.688z"/>
		<path fill="#FFFFFF" d="M132.462,31.133h-2.18v7.555h-1.297v-7.555h-1.531v-0.586l1.531-0.469v-0.477
			c0-2.104,0.919-3.156,2.758-3.156c0.453,0,0.984,0.091,1.594,0.273l-0.336,1.039c-0.5-0.161-0.927-0.242-1.281-0.242
			c-0.49,0-0.852,0.163-1.086,0.488c-0.234,0.326-0.352,0.848-0.352,1.566v0.555h2.18V31.133z M133.915,27.805
			c0-0.297,0.073-0.514,0.219-0.652c0.146-0.138,0.328-0.207,0.547-0.207c0.208,0,0.388,0.07,0.539,0.211
			c0.151,0.141,0.227,0.357,0.227,0.648c0,0.292-0.076,0.509-0.227,0.652c-0.151,0.144-0.331,0.215-0.539,0.215
			c-0.219,0-0.401-0.071-0.547-0.215C133.988,28.314,133.915,28.097,133.915,27.805z M135.321,38.688h-1.297v-8.562h1.297V38.688z"
			/>
		<path fill="#FFFFFF" d="M141.493,38.844c-1.24,0-2.199-0.381-2.879-1.145c-0.68-0.763-1.02-1.842-1.02-3.238
			c0-1.432,0.345-2.539,1.035-3.32c0.69-0.781,1.673-1.172,2.949-1.172c0.411,0,0.823,0.044,1.234,0.133
			c0.411,0.089,0.734,0.193,0.969,0.312l-0.398,1.102c-0.287-0.114-0.599-0.209-0.938-0.285c-0.339-0.075-0.638-0.113-0.898-0.113
			c-1.74,0-2.609,1.109-2.609,3.328c0,1.052,0.212,1.859,0.637,2.422c0.424,0.562,1.053,0.844,1.887,0.844
			c0.713,0,1.445-0.153,2.195-0.461v1.148C143.084,38.695,142.363,38.844,141.493,38.844z"/>
		<path fill="#FFFFFF" d="M150.954,38.688l-0.258-1.219h-0.062c-0.427,0.537-0.853,0.9-1.277,1.09
			c-0.425,0.19-0.955,0.285-1.59,0.285c-0.849,0-1.515-0.219-1.996-0.656c-0.482-0.438-0.723-1.06-0.723-1.867
			c0-1.729,1.383-2.635,4.148-2.719l1.453-0.047v-0.531c0-0.672-0.145-1.168-0.434-1.488s-0.751-0.48-1.387-0.48
			c-0.714,0-1.521,0.219-2.422,0.656l-0.398-0.992c0.422-0.229,0.884-0.409,1.387-0.539c0.502-0.13,1.006-0.195,1.512-0.195
			c1.021,0,1.777,0.227,2.27,0.68s0.738,1.18,0.738,2.18v5.844H150.954z M148.024,37.773c0.807,0,1.441-0.221,1.902-0.664
			c0.461-0.442,0.691-1.062,0.691-1.859v-0.773l-1.297,0.055c-1.031,0.037-1.775,0.197-2.23,0.48
			c-0.456,0.284-0.684,0.726-0.684,1.324c0,0.469,0.142,0.826,0.426,1.07C147.117,37.651,147.514,37.773,148.024,37.773z"/>
		<path fill="#FFFFFF" d="M157.353,37.773c0.229,0,0.45-0.017,0.664-0.051c0.214-0.034,0.383-0.069,0.508-0.105v0.992
			c-0.141,0.068-0.348,0.124-0.621,0.168c-0.273,0.044-0.52,0.066-0.738,0.066c-1.656,0-2.484-0.872-2.484-2.617v-5.094h-1.227
			v-0.625l1.227-0.539l0.547-1.828h0.75v1.984h2.484v1.008h-2.484v5.039c0,0.516,0.122,0.912,0.367,1.188
			C156.59,37.636,156.926,37.773,157.353,37.773z"/>
		<path fill="#FFFFFF" d="M160.126,27.805c0-0.297,0.073-0.514,0.219-0.652c0.146-0.138,0.328-0.207,0.547-0.207
			c0.208,0,0.388,0.07,0.539,0.211s0.227,0.357,0.227,0.648c0,0.292-0.075,0.509-0.227,0.652c-0.151,0.144-0.331,0.215-0.539,0.215
			c-0.219,0-0.401-0.071-0.547-0.215C160.199,28.314,160.126,28.097,160.126,27.805z M161.532,38.688h-1.297v-8.562h1.297V38.688z"
			/>
		<path fill="#FFFFFF" d="M171.673,34.398c0,1.396-0.352,2.486-1.055,3.27c-0.703,0.784-1.675,1.176-2.914,1.176
			c-0.766,0-1.445-0.18-2.039-0.539s-1.052-0.875-1.375-1.547s-0.484-1.458-0.484-2.359c0-1.396,0.349-2.483,1.047-3.262
			c0.698-0.778,1.667-1.168,2.906-1.168c1.198,0,2.149,0.398,2.855,1.195S171.673,33.039,171.673,34.398z M165.149,34.398
			c0,1.094,0.219,1.927,0.656,2.5c0.438,0.573,1.081,0.859,1.93,0.859s1.493-0.285,1.934-0.855s0.66-1.405,0.66-2.504
			c0-1.088-0.22-1.915-0.66-2.48c-0.44-0.565-1.09-0.848-1.949-0.848c-0.849,0-1.489,0.279-1.922,0.836
			C165.365,32.464,165.149,33.294,165.149,34.398z"/>
		<path fill="#FFFFFF" d="M179.806,38.688v-5.539c0-0.698-0.159-1.219-0.477-1.562s-0.815-0.516-1.492-0.516
			c-0.896,0-1.552,0.242-1.969,0.727s-0.625,1.284-0.625,2.398v4.492h-1.297v-8.562h1.055l0.211,1.172h0.062
			c0.266-0.422,0.638-0.749,1.117-0.98c0.479-0.231,1.013-0.348,1.602-0.348c1.031,0,1.808,0.249,2.328,0.746
			c0.521,0.498,0.781,1.293,0.781,2.387v5.586H179.806z"/>
		<path fill="#FFFFFF" d="M189.29,36.352c0,0.797-0.297,1.412-0.891,1.844c-0.594,0.433-1.427,0.648-2.5,0.648
			c-1.136,0-2.021-0.18-2.656-0.539v-1.203c0.411,0.208,0.853,0.373,1.324,0.492c0.472,0.12,0.926,0.18,1.363,0.18
			c0.677,0,1.198-0.108,1.562-0.324c0.364-0.216,0.547-0.545,0.547-0.988c0-0.333-0.145-0.618-0.434-0.855
			c-0.289-0.237-0.853-0.517-1.691-0.84c-0.797-0.297-1.363-0.556-1.699-0.777c-0.336-0.221-0.586-0.473-0.75-0.754
			s-0.246-0.617-0.246-1.008c0-0.698,0.284-1.249,0.852-1.652c0.567-0.403,1.347-0.605,2.336-0.605c0.922,0,1.823,0.188,2.703,0.562
			l-0.461,1.055c-0.859-0.354-1.638-0.531-2.336-0.531c-0.614,0-1.078,0.097-1.391,0.289c-0.312,0.193-0.469,0.458-0.469,0.797
			c0,0.229,0.059,0.425,0.176,0.586c0.117,0.162,0.306,0.315,0.566,0.461c0.261,0.146,0.761,0.357,1.5,0.633
			c1.016,0.37,1.702,0.742,2.059,1.117S189.29,35.784,189.29,36.352z"/>
	</g>
	<g>
		<path fill="#FFFFFF" d="M295.282,38.688v-5.539c0-0.698-0.159-1.219-0.477-1.562s-0.815-0.516-1.492-0.516
			c-0.901,0-1.559,0.245-1.973,0.734c-0.414,0.49-0.621,1.292-0.621,2.406v4.477h-1.297V26.531h1.297v3.68
			c0,0.443-0.021,0.81-0.062,1.102h0.078c0.255-0.411,0.618-0.735,1.09-0.973c0.472-0.237,1.009-0.355,1.613-0.355
			c1.047,0,1.832,0.249,2.355,0.746c0.523,0.498,0.785,1.288,0.785,2.371v5.586H295.282z"/>
		<path fill="#FFFFFF" d="M302.86,38.844c-1.266,0-2.265-0.385-2.996-1.156c-0.731-0.771-1.098-1.841-1.098-3.211
			c0-1.38,0.34-2.477,1.02-3.289s1.593-1.219,2.738-1.219c1.073,0,1.922,0.353,2.547,1.059c0.625,0.706,0.938,1.637,0.938,2.793
			v0.82h-5.898c0.026,1.005,0.28,1.769,0.762,2.289c0.481,0.521,1.16,0.781,2.035,0.781c0.922,0,1.833-0.192,2.734-0.578v1.156
			c-0.458,0.198-0.892,0.34-1.301,0.426S303.438,38.844,302.86,38.844z M302.509,31.055c-0.688,0-1.235,0.224-1.645,0.672
			c-0.409,0.448-0.649,1.068-0.723,1.859h4.477c0-0.817-0.183-1.444-0.547-1.879C303.707,31.272,303.186,31.055,302.509,31.055z"/>
		<path fill="#FFFFFF" d="M309.517,38.688h-1.297V26.531h1.297V38.688z"/>
		<path fill="#FFFFFF" d="M316.251,38.844c-0.558,0-1.066-0.103-1.527-0.309s-0.848-0.522-1.16-0.949h-0.094
			c0.062,0.5,0.094,0.974,0.094,1.422v3.523h-1.297V30.125h1.055l0.18,1.172h0.062c0.333-0.469,0.722-0.807,1.164-1.016
			c0.442-0.208,0.95-0.312,1.523-0.312c1.136,0,2.012,0.388,2.629,1.164c0.617,0.776,0.926,1.865,0.926,3.266
			c0,1.406-0.313,2.499-0.941,3.277C318.236,38.455,317.365,38.844,316.251,38.844z M316.063,31.07
			c-0.875,0-1.508,0.242-1.898,0.727s-0.591,1.255-0.602,2.312v0.289c0,1.203,0.2,2.064,0.602,2.582
			c0.401,0.519,1.044,0.777,1.93,0.777c0.739,0,1.319-0.299,1.738-0.898c0.419-0.599,0.629-1.424,0.629-2.477
			c0-1.067-0.21-1.887-0.629-2.457S316.824,31.07,316.063,31.07z"/>
	</g>
	<g>
		<g>
			<path fill="#FFFFFF" d="M53.83,10.833c-0.33,0-0.65-0.14-0.88-0.37c-0.24-0.23-0.37-0.561-0.37-0.89c0-0.32,0.13-0.64,0.36-0.88
				c0.47-0.471,1.31-0.461,1.77,0c0.24,0.24,0.37,0.56,0.37,0.88c0,0.329-0.14,0.659-0.37,0.89S54.16,10.833,53.83,10.833z"/>
		</g>
		<g>
			<path fill="#FFFFFF" d="M52.58,55.982c0-0.699,0.56-1.25,1.25-1.25l0,0c0.69,0,1.25,0.551,1.25,1.25l0,0
				c0,0.68-0.56,1.25-1.25,1.25l0,0C53.14,57.232,52.58,56.662,52.58,55.982z M52.58,48.243c0-0.69,0.56-1.25,1.25-1.25l0,0
				c0.69,0,1.25,0.56,1.25,1.25l0,0c0,0.69-0.56,1.25-1.25,1.25l0,0C53.14,49.493,52.58,48.934,52.58,48.243z M52.58,40.514
				c0-0.69,0.56-1.25,1.25-1.25l0,0c0.69,0,1.25,0.56,1.25,1.25l0,0c0,0.689-0.56,1.25-1.25,1.25l0,0
				C53.14,41.764,52.58,41.203,52.58,40.514z M52.58,32.783c0-0.69,0.56-1.25,1.25-1.25l0,0c0.69,0,1.25,0.56,1.25,1.25l0,0
				c0,0.689-0.56,1.25-1.25,1.25l0,0C53.14,34.033,52.58,33.473,52.58,32.783z M52.58,25.043c0-0.689,0.56-1.25,1.25-1.25l0,0
				c0.69,0,1.25,0.561,1.25,1.25l0,0c0,0.689-0.56,1.25-1.25,1.25l0,0C53.14,26.293,52.58,25.732,52.58,25.043z M52.58,17.312
				c0-0.689,0.56-1.25,1.25-1.25l0,0c0.69,0,1.25,0.561,1.25,1.25l0,0c0,0.69-0.56,1.25-1.25,1.25l0,0
				C53.14,18.562,52.58,18.003,52.58,17.312z"/>
		</g>
		<g>
			<path fill="#FFFFFF" d="M53.83,64.963c-0.33,0-0.65-0.131-0.89-0.369c-0.23-0.23-0.36-0.551-0.36-0.881s0.13-0.65,0.36-0.891
				c0.47-0.459,1.3-0.459,1.77,0c0.24,0.24,0.37,0.561,0.37,0.891s-0.13,0.65-0.37,0.881C54.48,64.832,54.16,64.963,53.83,64.963z"
				/>
		</g>
	</g>
	<g>
		<path fill="#FFFFFF" d="M56.429,5.143c-0.192,0-0.384-0.072-0.53-0.219l-2.351-2.35l-2.351,2.35c-0.293,0.293-0.768,0.293-1.061,0
			s-0.293-0.769,0-1.061l2.881-2.881c0.293-0.293,0.768-0.293,1.061,0l2.881,2.881c0.293,0.292,0.293,0.768,0,1.061
			C56.812,5.07,56.621,5.143,56.429,5.143z"/>
	</g>
	<g>
		<g>
			<path fill="#FFFFFF" d="M226.83,10.833c-0.33,0-0.65-0.14-0.891-0.37c-0.229-0.24-0.359-0.561-0.359-0.89
				c0-0.32,0.13-0.64,0.359-0.88c0.471-0.471,1.301-0.471,1.771,0c0.24,0.24,0.37,0.56,0.37,0.88c0,0.329-0.13,0.659-0.37,0.89
				C227.479,10.693,227.16,10.833,226.83,10.833z"/>
		</g>
		<g>
			<path fill="#FFFFFF" d="M225.58,55.982c0-0.699,0.56-1.25,1.25-1.25l0,0c0.689,0,1.25,0.551,1.25,1.25l0,0
				c0,0.68-0.561,1.25-1.25,1.25l0,0C226.14,57.232,225.58,56.662,225.58,55.982z M225.58,48.243c0-0.69,0.56-1.25,1.25-1.25l0,0
				c0.689,0,1.25,0.56,1.25,1.25l0,0c0,0.69-0.561,1.25-1.25,1.25l0,0C226.14,49.493,225.58,48.934,225.58,48.243z M225.58,40.514
				c0-0.69,0.56-1.25,1.25-1.25l0,0c0.689,0,1.25,0.56,1.25,1.25l0,0c0,0.689-0.561,1.25-1.25,1.25l0,0
				C226.14,41.764,225.58,41.203,225.58,40.514z M225.58,32.783c0-0.69,0.56-1.25,1.25-1.25l0,0c0.689,0,1.25,0.56,1.25,1.25l0,0
				c0,0.689-0.561,1.25-1.25,1.25l0,0C226.14,34.033,225.58,33.473,225.58,32.783z M225.58,25.043c0-0.689,0.56-1.25,1.25-1.25l0,0
				c0.689,0,1.25,0.561,1.25,1.25l0,0c0,0.689-0.561,1.25-1.25,1.25l0,0C226.14,26.293,225.58,25.732,225.58,25.043z M225.58,17.312
				c0-0.689,0.56-1.25,1.25-1.25l0,0c0.689,0,1.25,0.561,1.25,1.25l0,0c0,0.69-0.561,1.25-1.25,1.25l0,0
				C226.14,18.562,225.58,18.003,225.58,17.312z"/>
		</g>
		<g>
			<path fill="#FFFFFF" d="M226.83,64.963c-0.33,0-0.65-0.131-0.891-0.369c-0.229-0.23-0.359-0.551-0.359-0.881
				s0.13-0.65,0.359-0.881c0.471-0.469,1.311-0.469,1.771-0.01c0.24,0.24,0.37,0.561,0.37,0.891s-0.13,0.65-0.37,0.881
				C227.479,64.832,227.16,64.963,226.83,64.963z"/>
		</g>
	</g>
	<g>
		<path fill="#FFFFFF" d="M229.429,5.143c-0.192,0-0.384-0.072-0.53-0.219l-2.351-2.35l-2.351,2.35
			c-0.293,0.293-0.768,0.293-1.061,0s-0.293-0.769,0-1.061l2.881-2.881c0.293-0.293,0.768-0.293,1.061,0l2.881,2.881
			c0.293,0.292,0.293,0.768,0,1.061C229.812,5.07,229.621,5.143,229.429,5.143z"/>
	</g>
	<g>
		<g>
			<path fill="#FFFFFF" d="M144.83,10.833c-0.33,0-0.65-0.14-0.89-0.37c-0.23-0.24-0.36-0.561-0.36-0.88
				c0-0.33,0.13-0.649,0.36-0.89c0.47-0.461,1.31-0.461,1.77,0c0.24,0.24,0.37,0.56,0.37,0.89c0,0.319-0.13,0.64-0.37,0.88
				C145.48,10.693,145.16,10.833,144.83,10.833z"/>
		</g>
		<g>
			<path fill="#FFFFFF" d="M143.58,16.643c0-0.689,0.56-1.25,1.25-1.25l0,0c0.69,0,1.25,0.561,1.25,1.25l0,0
				c0,0.69-0.56,1.25-1.25,1.25l0,0C144.14,17.893,143.58,17.333,143.58,16.643z"/>
		</g>
		<g>
			<path fill="#FFFFFF" d="M144.83,24.963c-0.33,0-0.65-0.13-0.89-0.37c-0.23-0.229-0.36-0.55-0.36-0.88s0.13-0.65,0.36-0.88
				c0.47-0.47,1.31-0.47,1.77,0c0.24,0.229,0.37,0.55,0.37,0.88s-0.13,0.65-0.37,0.88C145.48,24.833,145.16,24.963,144.83,24.963z"
				/>
		</g>
	</g>
	<g>
		<path fill="#FFFFFF" d="M147.429,5.143c-0.192,0-0.384-0.072-0.53-0.219l-2.351-2.35l-2.351,2.35
			c-0.293,0.293-0.768,0.293-1.061,0s-0.293-0.769,0-1.061l2.881-2.881c0.293-0.293,0.768-0.293,1.061,0l2.881,2.881
			c0.293,0.292,0.293,0.768,0,1.061C147.812,5.07,147.621,5.143,147.429,5.143z"/>
	</g>
	<g>
		<g>
			<path fill="#FFFFFF" d="M303.83,10.833c-0.33,0-0.65-0.14-0.891-0.37c-0.229-0.24-0.359-0.561-0.359-0.89
				c0-0.32,0.13-0.64,0.359-0.88c0.471-0.461,1.301-0.471,1.771,0c0.24,0.24,0.37,0.56,0.37,0.88c0,0.329-0.13,0.649-0.36,0.89
				C304.479,10.693,304.16,10.833,303.83,10.833z"/>
		</g>
		<g>
			<path fill="#FFFFFF" d="M302.58,16.643c0-0.689,0.56-1.25,1.25-1.25l0,0c0.689,0,1.25,0.561,1.25,1.25l0,0
				c0,0.69-0.561,1.25-1.25,1.25l0,0C303.14,17.893,302.58,17.333,302.58,16.643z"/>
		</g>
		<g>
			<path fill="#FFFFFF" d="M303.83,24.963c-0.33,0-0.65-0.13-0.891-0.37c-0.229-0.229-0.359-0.55-0.359-0.88s0.13-0.65,0.359-0.89
				c0.471-0.46,1.311-0.46,1.771,0c0.24,0.239,0.37,0.56,0.37,0.89c0,0.32-0.13,0.65-0.36,0.88
				C304.479,24.833,304.16,24.963,303.83,24.963z"/>
		</g>
	</g>
	<g>
		<path fill="#FFFFFF" d="M306.429,5.143c-0.192,0-0.384-0.072-0.53-0.219l-2.351-2.35l-2.351,2.35
			c-0.293,0.293-0.768,0.293-1.061,0s-0.293-0.769,0-1.061l2.881-2.881c0.293-0.293,0.768-0.293,1.061,0l2.881,2.881
			c0.293,0.292,0.293,0.768,0,1.061C306.812,5.07,306.621,5.143,306.429,5.143z"/>
	</g>
</g>
<g id="export_a_zip_archive__with_your_application_files_1_">
</g>
<g id="notifications">
</g>
<g id="help_x0D_">
</g>
<g id="Shape_3_copy_7_xA0_Image_1_">
</g>
<g id="Shape_8_copy_2_xA0_Image_1_">
</g>
<g id="Shape_3_copy_8_xA0_Image_1_">
</g>
<g id="Shape_8_copy_3_xA0_Image_1_">
</g>
<g id="Shape_3_copy_9_xA0_Image_1_">
</g>
<g id="Shape_8_copy_4_xA0_Image_1_">
</g>
<g id="Shape_3_copy_10_xA0_Image_1_">
</g>
<g id="Shape_8_copy_5_xA0_Image_1_">
</g>
</svg>
